<svg xmlns="http://www.w3.org/2000/svg" width="1000" height="500" viewBox="0 0 1000 500">
<g>
<path d="M 256.34 368.50 C253.26,369.79 242.05,369.99 176.63,369.96 C115.26,369.93 99.90,369.66 97.42,368.58 C92.90,366.61 87.16,361.23 84.94,356.88 C83.05,353.19 83.00,350.03 83.02,244.29 C83.04,140.77 83.13,135.30 84.89,131.44 C87.52,125.65 94.14,120.33 100.38,118.98 C103.94,118.21 128.25,117.97 180.08,118.19 L 254.66 118.50 L 259.55 121.53 C262.59,123.40 265.60,126.41 267.47,129.45 L 270.50 134.34 L 270.76 242.71 L 271.03 351.07 L 268.89 356.04 C266.52,361.54 261.82,366.21 256.34,368.50 ZM 98.68 327.75 C100.01,328.72 117.25,329.00 176.86,329.00 C246.62,329.00 253.50,328.85 255.17,327.35 C256.92,325.77 257.00,321.62 257.00,236.04 C257.00,165.89 256.73,146.01 255.75,144.68 C254.59,143.10 248.91,143.00 176.00,143.24 L 97.50 143.50 L 97.24 235.00 C97.00,320.13 97.10,326.59 98.68,327.75 ZM 479.22 245.69 C470.56,247.96 467.27,248.27 449.00,248.51 C429.16,248.76 421.96,248.53 417.25,247.47 L 415.00 246.96 L 415.00 122.23 L 417.25 121.64 C418.49,121.31 427.22,120.49 436.66,119.83 C449.75,118.90 456.88,118.88 466.66,119.75 C489.28,121.76 499.87,125.94 511.60,137.50 C522.97,148.71 528.00,162.08 528.00,181.11 C528.00,201.34 521.30,218.75 509.10,230.26 C500.92,237.98 493.03,242.06 479.22,245.69 ZM 617.00 247.46 C609.34,249.75 592.08,250.34 584.36,248.58 C566.13,244.40 554.82,233.20 549.45,214.00 C547.85,208.28 547.59,202.23 547.25,163.75 L 546.87 120.00 L 575.88 120.00 L 576.20 163.25 C576.52,205.35 576.58,206.65 578.76,212.07 C582.58,221.53 589.58,226.39 599.50,226.45 C606.65,226.50 613.61,223.00 616.82,217.76 C622.05,209.20 622.33,206.44 622.61,162.00 L 622.86 120.50 L 651.00 119.95 L 651.00 161.53 C651.00,196.24 650.73,204.29 649.38,210.30 C644.96,229.92 634.15,242.33 617.00,247.46 ZM 396.06 224.00 L 395.50 247.50 L 355.43 247.76 C333.39,247.90 315.05,247.72 314.68,247.34 C314.31,246.97 314.00,218.17 314.00,183.33 L 314.00 120.00 L 393.06 120.00 L 392.50 143.50 L 343.00 144.03 L 343.00 170.00 L 390.00 170.00 L 390.00 194.00 L 343.00 194.00 L 343.00 224.00 ZM 759.63 247.56 C751.28,249.51 731.97,250.27 723.76,248.98 C704.87,246.00 688.31,235.55 679.56,221.07 C667.39,200.95 667.66,169.10 680.18,148.32 C687.60,136.00 702.85,125.12 718.70,120.84 C733.75,116.77 768.78,118.67 770.70,123.65 C771.01,124.47 770.02,129.87 768.48,135.65 C765.91,145.35 765.54,146.10 763.60,145.48 C749.28,140.87 732.91,140.98 722.70,145.76 C714.40,149.64 709.97,153.67 706.28,160.71 C701.92,169.02 700.66,175.59 701.25,186.87 C701.89,199.16 704.48,206.18 711.03,213.34 C720.41,223.60 735.54,227.79 752.33,224.77 C757.37,223.87 762.45,222.83 763.62,222.48 C765.61,221.87 765.87,222.49 767.83,232.67 C767.89,233.02 767.96,233.35 768.02,233.68 C769.18,239.68 769.73,242.53 768.58,244.21 C767.47,245.81 764.81,246.35 759.63,247.56 ZM 446.25 226.29 C454.80,227.94 467.64,225.90 476.71,221.46 C486.90,216.47 493.28,208.14 495.82,196.50 C503.53,161.11 485.66,138.86 451.75,141.63 L 444.00 142.26 L 444.00 225.86 ZM 192.05 233.08 C185.70,234.68 180.29,236.00 180.04,236.00 C179.78,236.00 181.70,233.85 184.29,231.22 C186.88,228.58 189.00,226.15 189.00,225.80 C189.00,225.45 183.26,223.30 176.25,221.03 C169.24,218.75 162.25,216.40 160.71,215.81 C155.49,213.78 155.51,212.33 161.08,195.26 C166.41,178.94 167.96,176.00 171.25,176.00 C173.90,176.00 222.95,191.87 225.75,193.63 C227.19,194.54 228.00,196.03 228.00,197.77 C227.99,201.55 218.51,229.92 216.62,231.81 C215.23,233.20 214.51,233.19 209.34,231.75 C203.71,230.19 203.38,230.21 192.05,233.08 ZM 363.21 308.99 C354.58,315.31 344.20,309.40 343.22,297.60 C342.15,284.71 352.68,276.17 363.05,281.53 L 366.00 283.05 L 366.00 274.53 C366.00,266.10 366.03,266.00 368.50,266.00 L 371.00 266.00 L 371.00 283.86 C371.00,293.68 371.29,303.81 371.64,306.36 C372.25,310.87 372.20,311.00 369.64,311.00 C367.67,311.00 367.00,310.49 367.00,309.00 C367.00,306.51 366.59,306.51 363.21,308.99 ZM 437.29 379.45 C432.45,382.95 418.00,382.22 418.00,378.48 C418.00,376.25 419.73,375.84 423.89,377.08 C431.33,379.31 437.00,375.70 437.00,368.74 L 437.00 364.85 L 434.37 366.93 C428.46,371.57 419.46,368.39 416.48,360.59 C413.77,353.48 415.74,345.72 421.32,341.59 C425.08,338.81 432.92,338.71 435.90,341.40 C437.75,343.09 438.00,343.12 438.00,341.65 C438.00,340.56 438.84,340.00 440.50,340.00 L 443.00 340.00 L 443.00 353.82 C443.00,369.79 441.53,376.38 437.29,379.45 ZM 335.70 368.04 C331.61,370.54 327.37,370.52 323.23,368.00 C319.30,365.60 319.00,365.57 319.00,367.50 C319.00,368.43 318.06,369.00 316.50,369.00 L 314.00 369.00 L 314.00 326.00 L 320.00 326.00 L 320.00 342.78 L 323.71 340.89 C329.40,337.99 333.39,338.42 337.73,342.39 C341.20,345.57 341.45,346.20 341.82,352.74 C342.28,360.92 340.64,365.03 335.70,368.04 ZM 849.21 302.75 C848.94,322.42 848.79,324.00 847.13,324.00 C844.31,324.00 844.00,323.14 844.00,315.25 C844.00,311.17 843.66,308.01 843.25,308.22 C834.95,312.49 831.34,312.63 826.53,308.84 C822.77,305.89 821.00,301.77 821.00,296.00 C821.00,287.12 825.77,281.12 833.51,280.25 C837.22,279.83 838.71,280.15 841.07,281.89 C843.24,283.50 844.00,283.69 844.00,282.65 C844.00,281.13 848.12,279.59 848.98,280.78 C849.27,281.18 849.37,291.06 849.21,302.75 ZM 399.77 368.00 C395.74,370.45 392.55,370.52 388.00,368.25 C378.50,363.50 378.73,345.20 388.35,340.64 C392.63,338.61 397.01,338.54 399.56,340.47 C400.63,341.28 401.84,341.95 402.25,341.97 C402.66,341.99 403.00,338.40 403.00,334.00 C403.00,326.13 403.04,326.00 405.50,326.00 L 408.00 326.00 L 408.00 344.38 C408.00,354.48 408.27,364.09 408.60,365.73 C409.10,368.23 408.83,368.81 406.99,369.29 C405.36,369.72 404.65,369.36 404.27,367.94 C404.02,366.97 403.89,366.39 403.55,366.22 C403.08,365.98 402.22,366.50 400.07,367.82 ZM 738.21 310.96 C733.94,312.14 733.55,312.14 729.50,310.90 C725.51,309.67 723.67,308.16 721.13,303.98 C716.87,296.99 719.15,286.80 726.00,282.18 C728.92,280.21 730.45,279.89 735.25,280.23 C739.92,280.55 741.57,281.17 744.02,283.52 C752.39,291.54 748.90,307.99 738.21,310.96 ZM 529.94 309.14 C526.76,311.43 521.26,312.18 517.50,310.83 C510.18,308.20 506.18,300.98 507.42,292.67 C508.64,284.52 514.36,280.00 523.43,280.00 C527.02,280.00 528.63,280.62 531.40,283.05 C535.61,286.74 537.41,291.70 536.73,297.73 C536.19,302.49 533.96,306.23 529.94,309.14 ZM 672.64 308.90 C667.38,312.13 663.10,312.40 658.02,309.79 C652.29,306.86 649.85,302.65 649.79,295.58 C649.73,288.96 652.07,284.49 656.98,281.86 C661.37,279.52 668.28,279.47 672.19,281.75 C681.00,286.89 681.28,303.60 672.64,308.90 ZM 172.56 364.46 C179.64,366.89 187.55,363.08 190.45,355.84 C192.87,349.79 191.73,344.49 186.99,339.75 C183.52,336.29 182.80,336.00 177.49,336.00 C170.56,336.00 165.96,338.46 163.61,343.42 C159.48,352.12 163.38,361.31 172.56,364.46 ZM 761.00 300.63 L 761.00 311.00 L 756.00 311.00 L 756.00 296.00 C756.00,281.95 756.12,281.00 757.89,281.00 C758.93,281.00 760.06,281.71 760.39,282.57 C760.92,283.95 761.33,283.88 763.63,282.07 C767.44,279.08 773.38,279.29 776.62,282.53 L 779.15 285.05 L 782.15 282.53 C786.49,278.88 792.19,279.04 796.08,282.92 C799.00,285.84 799.00,285.86 799.00,298.42 L 799.00 311.00 L 794.00 311.00 L 793.99 300.75 C793.97,289.45 792.80,285.69 789.12,285.17 C781.87,284.13 780.00,287.39 780.00,301.05 C780.00,311.00 780.00,311.00 777.50,311.00 L 775.00 311.00 L 774.99 300.75 C774.97,288.25 773.93,285.62 768.84,285.20 C765.91,284.95 764.83,285.40 763.11,287.58 C761.27,289.93 761.00,291.60 761.00,300.63 ZM 147.00 127.00 L 147.00 136.00 L 207.00 136.00 L 207.00 127.00 ZM 456.18 310.05 C451.94,312.32 450.59,312.40 446.48,310.60 C443.55,309.33 441.00,305.51 441.00,302.40 C441.00,299.57 443.85,295.39 446.68,294.08 C448.23,293.35 451.75,292.48 454.50,292.12 C459.11,291.53 459.47,291.29 459.18,288.99 C458.59,284.44 453.56,282.69 447.58,284.97 C445.50,285.76 444.85,285.59 444.03,284.06 C443.18,282.47 443.51,282.02 446.16,281.09 C447.89,280.49 451.29,280.00 453.71,280.00 C463.04,280.00 465.00,283.37 465.00,299.45 C465.00,310.39 464.89,311.00 462.97,311.00 C461.85,311.00 460.69,310.35 460.38,309.55 C459.91,308.32 459.25,308.40 456.18,310.05 ZM 613.68 310.29 C607.84,312.53 598.67,311.46 594.58,308.07 C590.37,304.57 588.75,294.86 591.37,288.72 C593.67,283.32 597.32,280.72 603.29,280.23 C607.91,279.84 608.99,280.12 611.73,282.43 C615.08,285.24 617.35,290.51 616.82,294.23 C616.52,296.39 615.98,296.52 605.93,297.00 L 595.37 297.50 L 596.21 300.74 C597.37,305.22 601.62,307.27 608.85,306.83 C613.41,306.56 614.53,306.81 614.78,308.12 C614.96,309.02 614.46,309.99 613.68,310.29 ZM 912.31 310.93 C906.68,312.50 903.91,312.25 899.04,309.75 C893.80,307.07 891.00,302.35 891.00,296.23 C891.00,286.80 895.94,280.92 904.47,280.21 C909.64,279.78 910.15,279.95 913.35,283.15 C916.70,286.50 919.00,293.57 917.52,295.96 C917.15,296.57 912.57,297.00 906.44,297.00 C900.70,297.00 896.00,297.16 896.00,297.35 C896.00,297.54 896.50,299.13 897.11,300.88 C898.64,305.28 902.85,307.25 909.85,306.83 C914.49,306.56 915.53,306.79 915.80,308.19 C916.03,309.40 915.06,310.17 912.31,310.93 ZM 679.00 344.00 L 679.00 369.00 L 676.47 369.00 C675.07,369.00 673.66,368.28 673.32,367.40 C672.99,366.52 672.98,361.10 673.30,355.36 C673.89,344.96 673.88,344.91 671.45,343.98 C668.53,342.87 668.17,340.00 670.95,340.00 C672.43,340.00 673.07,339.08 673.57,336.25 C674.48,331.03 676.58,328.07 680.55,326.42 C686.68,323.85 694.27,325.25 693.35,328.77 C692.93,330.39 692.12,330.59 687.56,330.21 C682.89,329.83 682.08,330.05 680.64,332.11 C679.74,333.39 679.00,335.69 679.00,337.22 L 679.00 340.00 L 696.00 340.00 L 696.00 369.00 L 691.00 369.00 L 691.00 344.00 ZM 627.88 369.38 C622.25,370.50 617.56,370.03 614.24,368.01 C602.34,360.75 605.68,341.24 619.14,339.39 C627.25,338.28 633.00,343.67 633.00,352.40 L 633.00 356.00 L 622.43 356.00 C611.94,356.00 611.87,356.02 612.55,358.25 C614.25,363.77 619.23,366.43 626.10,365.49 C630.54,364.88 631.00,365.00 631.00,366.78 C631.00,368.19 630.11,368.93 627.88,369.38 ZM 471.52 368.99 C467.47,370.53 460.89,370.19 457.03,368.25 C452.21,365.82 449.55,360.82 449.65,354.37 C449.79,344.55 456.03,338.43 464.97,339.35 C470.25,339.89 473.36,342.90 475.03,349.12 C476.81,355.70 476.37,356.00 465.03,356.00 C456.09,356.00 455.00,356.19 455.00,357.78 C455.00,362.73 461.24,366.30 469.01,365.78 C474.01,365.45 475.57,367.45 471.52,368.99 ZM 585.52 368.99 C581.47,370.53 574.89,370.19 571.03,368.25 C566.21,365.82 563.55,360.82 563.65,354.37 C563.79,344.55 570.03,338.43 578.97,339.35 C584.20,339.88 587.36,342.90 588.98,348.91 C590.76,355.54 590.11,356.00 578.89,356.00 C569.76,356.00 569.00,356.15 569.00,357.94 C569.00,359.01 570.09,361.15 571.42,362.69 C573.62,365.25 574.42,365.50 580.58,365.50 C587.86,365.50 590.25,367.19 585.52,368.99 ZM 751.26 368.37 C747.10,370.52 744.21,370.42 740.25,368.01 C737.47,366.32 737.00,365.46 737.00,362.10 C737.00,359.93 737.28,357.43 737.62,356.54 C738.57,354.07 745.42,351.00 749.96,351.00 C753.53,351.00 754.00,350.73 754.00,348.65 C754.00,344.94 750.71,342.64 746.27,343.26 C744.20,343.55 741.85,343.95 741.06,344.14 C740.27,344.34 739.45,343.74 739.25,342.81 C738.46,339.22 751.80,337.93 755.74,341.20 C758.79,343.73 760.00,348.77 760.00,358.97 C760.00,368.91 759.98,369.00 757.58,369.00 C756.25,369.00 755.00,368.49 754.79,367.87 C754.53,367.08 753.44,367.24 751.26,368.37 ZM 862.88 369.38 C850.34,371.88 841.99,365.87 842.00,354.35 C842.01,345.77 848.33,339.01 856.35,339.00 C861.24,339.00 866.51,343.86 867.53,349.31 C868.73,355.69 868.25,356.00 857.03,356.00 C850.69,356.00 847.00,356.39 847.00,357.05 C847.00,357.63 847.67,359.39 848.48,360.97 C850.37,364.62 855.42,366.36 861.47,365.45 C865.55,364.84 866.00,364.97 866.00,366.76 C866.00,368.19 865.12,368.93 862.88,369.38 ZM 913.43 369.02 C907.23,371.38 898.07,369.07 894.55,364.26 C891.47,360.05 891.22,351.16 894.05,346.12 C900.21,335.16 915.40,337.59 917.48,349.86 C917.85,352.10 917.88,354.39 917.52,354.96 C917.15,355.57 912.72,356.00 906.94,356.00 C900.67,356.00 897.00,356.39 897.00,357.05 C897.00,357.63 897.67,359.39 898.48,360.97 C900.37,364.62 905.42,366.36 911.47,365.45 C915.28,364.88 916.00,365.03 916.00,366.41 C916.00,367.31 914.85,368.49 913.43,369.02 ZM 515.91 367.58 C514.94,368.46 512.34,369.41 510.13,369.71 C506.60,370.18 505.71,369.87 503.05,367.20 C499.85,364.01 499.37,361.79 500.96,357.62 C502.30,354.08 506.11,351.89 512.23,351.14 C518.27,350.40 519.44,348.44 515.95,344.95 C514.24,343.24 512.98,342.88 510.13,343.29 C508.14,343.57 505.77,344.10 504.88,344.46 C503.78,344.90 503.10,344.49 502.76,343.18 C502.35,341.64 503.01,341.01 505.99,340.12 C513.08,338.00 518.89,339.17 521.19,343.20 C521.96,344.56 522.70,350.30 523.00,357.25 C523.50,368.92 523.48,369.00 521.25,369.00 C519.92,369.00 519.00,368.39 519.00,367.50 C519.00,365.58 518.10,365.60 515.91,367.58 ZM 338.82 308.75 C339.14,310.98 339.01,311.00 327.07,311.00 L 315.00 311.00 L 315.00 269.00 L 326.50 269.00 C337.33,269.00 338.00,269.12 338.00,271.00 C338.00,272.85 337.33,273.00 328.95,273.00 L 319.91 273.00 L 320.50 286.50 L 328.75 286.79 C336.18,287.05 337.00,287.28 337.00,289.04 C337.00,290.83 336.27,291.00 328.50,291.00 L 320.00 291.00 L 320.00 305.92 L 329.25 306.21 C337.98,306.48 338.52,306.63 338.82,308.75 ZM 774.00 358.50 L 774.00 369.00 L 768.00 369.00 L 768.00 340.00 L 770.50 340.00 C772.06,340.00 773.00,340.57 773.00,341.50 C773.00,343.43 773.30,343.40 777.23,341.00 C782.08,338.04 786.62,338.38 789.96,341.96 C793.15,345.37 793.97,349.23 793.99,360.75 L 794.00 369.00 L 788.00 369.00 L 788.00 358.72 C788.00,346.54 786.87,344.00 781.44,344.00 C775.23,344.00 774.00,346.40 774.00,358.50 ZM 876.25 308.96 C870.50,313.17 864.80,312.34 860.60,306.68 C858.83,304.30 858.45,302.12 858.15,292.43 L 857.78 281.00 L 864.00 281.00 L 864.00 291.55 C864.00,301.41 864.16,302.25 866.45,304.55 C869.55,307.64 872.13,307.65 875.68,304.60 C878.39,302.26 878.47,301.93 878.48,291.85 L 878.50 281.50 L 881.25 281.18 L 884.00 280.87 L 884.00 311.00 L 881.50 311.00 C879.65,311.00 879.00,310.47 879.00,308.97 L 879.00 306.94 ZM 692.00 300.00 L 692.00 311.00 L 686.00 311.00 L 686.00 296.11 C686.00,283.42 686.24,281.12 687.59,280.60 C689.57,279.84 691.00,280.67 691.00,282.56 C691.00,284.48 691.70,284.38 694.73,282.00 C697.61,279.73 704.56,279.33 707.05,281.28 C711.32,284.65 712.00,287.11 712.00,299.22 L 712.00 311.00 L 709.50 311.00 C707.01,311.00 707.00,310.97 707.00,301.47 C707.00,295.41 706.47,290.67 705.55,288.47 C704.24,285.32 703.73,285.00 700.05,285.00 C693.09,285.00 692.00,287.03 692.00,300.00 ZM 549.15 300.09 C548.78,310.82 548.74,311.00 546.39,311.00 L 544.00 311.00 L 544.00 281.00 L 546.50 281.00 C548.40,281.00 549.02,281.54 549.08,283.25 C549.12,284.49 549.39,284.93 549.67,284.23 C550.47,282.25 555.55,280.00 559.23,280.00 C567.14,280.00 570.00,285.44 570.00,300.47 L 570.00 311.00 L 564.00 311.00 L 564.00 299.65 C564.00,286.77 563.13,285.00 556.83,285.00 C550.82,285.00 549.59,287.43 549.15,300.09 ZM 398.15 309.00 C390.70,314.37 382.70,311.03 380.92,301.80 C379.94,296.72 379.74,284.83 380.61,282.58 C380.94,281.71 382.25,281.00 383.52,281.00 C385.76,281.00 385.83,281.28 386.16,291.90 C386.44,300.90 386.83,303.16 388.40,304.90 C391.01,307.78 395.11,307.57 398.08,304.42 C400.26,302.10 400.53,300.83 400.84,291.42 C401.18,281.17 401.22,281.00 403.59,281.00 L 406.00 281.00 L 406.00 296.00 C406.00,310.56 405.94,311.00 403.91,311.00 C402.67,311.00 401.60,310.20 401.30,309.05 C400.80,307.12 400.75,307.12 398.15,309.00 ZM 710.16 358.60 C709.82,368.83 709.78,369.00 707.41,369.00 L 705.00 369.00 L 705.00 340.00 L 707.50 340.00 C709.33,340.00 710.00,340.53 710.00,342.00 C710.00,343.98 710.02,343.98 711.94,342.06 C714.50,339.50 720.29,338.46 723.83,339.93 C728.78,341.98 730.00,345.52 730.00,357.90 L 730.00 369.00 L 727.50 369.00 C725.02,369.00 725.00,368.94 725.00,359.97 C725.00,354.34 724.45,349.63 723.55,347.47 C722.25,344.35 721.71,344.00 718.21,344.00 C711.82,344.00 710.56,346.28 710.16,358.60 ZM 366.60 366.91 C365.28,368.15 362.42,369.40 360.24,369.69 C356.85,370.15 355.80,369.79 352.89,367.20 L 349.50 364.17 L 349.17 352.08 L 348.83 340.00 L 351.42 340.00 C353.98,340.00 354.00,340.08 354.12,348.25 C354.27,359.06 354.97,361.90 358.05,364.19 C360.10,365.72 361.14,365.90 363.26,365.09 C367.50,363.48 369.00,359.28 369.00,349.05 C369.00,340.06 369.02,340.00 371.50,340.00 L 374.00 340.00 L 374.00 354.42 C374.00,365.05 373.67,368.95 372.75,369.27 C370.64,370.01 369.00,368.89 369.00,366.72 C369.00,364.68 368.97,364.68 366.60,366.91 ZM 659.30 305.50 C661.53,307.06 665.65,307.45 668.46,306.38 C674.78,303.95 674.17,286.46 667.70,284.40 C664.45,283.37 659.07,284.97 657.45,287.44 C653.89,292.87 654.87,302.39 659.30,305.50 ZM 730.15 305.94 C732.23,307.21 734.00,307.56 735.83,307.07 C739.52,306.09 743.00,300.62 743.00,295.80 C743.00,285.45 734.44,280.41 727.92,286.92 C725.45,289.40 725.00,290.64 725.00,294.99 C725.00,301.12 726.11,303.49 730.15,305.94 ZM 519.50 307.05 C522.22,308.14 525.01,307.27 528.00,304.37 C530.15,302.29 530.50,301.07 530.50,295.56 C530.50,290.16 530.12,288.76 528.08,286.58 C524.90,283.20 520.12,283.14 516.31,286.41 C513.77,288.60 513.50,289.45 513.50,295.31 C513.50,302.14 515.10,305.26 519.50,307.05 ZM 831.74 306.31 C839.28,308.27 843.16,304.97 843.80,296.03 C844.21,290.43 844.05,289.90 841.08,286.92 C838.42,284.27 837.41,283.86 834.71,284.38 C832.94,284.72 830.49,286.15 829.25,287.55 C825.21,292.15 826.92,305.05 831.74,306.31 ZM 351.92 304.08 C358.35,310.51 366.00,305.76 366.00,295.35 C366.00,290.60 365.60,289.45 363.08,286.92 C361.31,285.16 359.10,284.00 357.50,284.00 C355.90,284.00 353.69,285.16 351.92,286.92 C349.38,289.46 349.00,290.58 349.00,295.50 C349.00,300.42 349.38,301.54 351.92,304.08 ZM 326.00 365.29 C328.37,366.16 328.93,366.09 331.94,364.53 C336.97,361.93 338.55,353.05 335.01,347.25 C333.25,344.37 332.53,344.00 328.59,344.00 C322.43,344.00 320.00,347.10 320.00,354.96 C320.00,360.73 321.75,363.74 326.00,365.29 ZM 389.89 363.20 C393.83,366.71 397.15,366.43 400.86,362.28 C402.92,359.97 403.16,358.87 402.81,353.31 C402.33,345.89 400.81,343.85 395.59,343.71 C392.88,343.63 391.25,344.29 389.26,346.29 C386.98,348.57 386.57,349.83 386.57,354.60 C386.57,359.71 386.88,360.50 389.89,363.20 ZM 436.34 310.06 C434.86,311.54 426.79,311.99 423.22,310.80 C418.95,309.36 414.27,303.97 413.44,299.52 C411.44,288.87 418.85,279.98 429.70,280.02 C435.05,280.03 437.47,281.09 436.79,283.12 C436.48,284.05 434.53,284.48 430.59,284.49 C425.36,284.50 424.57,284.80 421.92,287.77 C418.74,291.33 418.02,296.75 420.12,301.36 C421.82,305.09 426.91,307.41 431.92,306.74 C435.09,306.31 436.27,306.54 436.70,307.65 C437.01,308.47 436.85,309.55 436.34,310.06 ZM 644.15 310.40 C641.96,311.76 635.16,311.88 631.74,310.62 C624.61,307.99 622.00,303.99 622.00,295.70 C622.00,286.20 628.38,280.00 638.17,280.00 C644.33,280.00 645.90,280.68 645.27,283.08 C644.82,284.78 644.14,284.96 640.13,284.47 C636.55,284.03 634.79,284.35 632.35,285.87 C626.41,289.60 625.48,299.28 630.60,304.09 C632.71,306.08 634.20,306.50 639.08,306.50 C643.97,306.50 645.00,306.79 645.00,308.19 C645.00,309.12 644.62,310.12 644.15,310.40 ZM 423.92 362.08 C427.53,365.68 431.24,365.85 434.55,362.55 C436.61,360.48 437.00,359.13 437.00,354.00 C437.00,348.79 436.63,347.54 434.43,345.34 C432.37,343.27 431.25,342.90 428.68,343.39 C423.74,344.34 421.00,348.16 421.00,354.13 C421.00,358.35 421.47,359.62 423.92,362.08 ZM 820.75 369.37 C813.99,371.18 806.37,368.85 802.71,363.86 C797.53,356.79 800.58,344.46 808.39,340.91 C814.90,337.95 823.00,338.62 823.00,342.12 C823.00,343.74 822.20,344.00 817.25,344.03 C811.23,344.07 809.10,345.05 807.16,348.68 C805.65,351.52 805.72,359.05 807.28,361.10 C809.66,364.21 814.72,366.07 818.98,365.39 C822.55,364.82 823.00,364.97 823.00,366.76 C823.00,368.00 822.14,369.00 820.75,369.37 ZM 495.78 367.91 C495.42,369.85 490.44,370.37 487.26,368.81 C484.29,367.34 483.01,362.38 483.01,352.25 C483.00,344.67 482.84,344.00 481.00,344.00 C479.67,344.00 479.00,343.33 479.00,342.00 C479.00,340.67 479.67,340.00 481.00,340.00 C482.56,340.00 483.00,339.33 483.00,337.00 C483.00,335.35 483.34,333.99 483.75,333.99 C484.16,333.98 485.51,333.70 486.75,333.37 C488.78,332.83 489.00,333.12 489.00,336.38 C489.00,339.85 489.15,340.00 492.50,340.00 C495.33,340.00 496.00,340.38 496.00,342.00 C496.00,343.62 495.33,344.00 492.47,344.00 L 488.93 344.00 L 489.22 354.21 L 489.50 364.43 L 492.79 365.37 C494.99,366.00 495.99,366.84 495.78,367.91 ZM 486.42 311.39 C482.86,312.76 477.66,310.75 476.14,307.42 C475.52,306.04 475.00,300.46 475.00,295.02 C475.00,285.55 474.91,285.13 472.76,284.82 C469.66,284.38 469.21,281.25 472.19,280.83 C473.83,280.59 474.63,279.67 474.99,277.60 C475.29,275.91 476.33,274.40 477.50,273.99 C479.22,273.38 479.57,273.79 480.00,276.89 C480.46,280.23 480.78,280.52 484.25,280.81 C487.19,281.05 488.00,281.54 488.00,283.06 C488.00,284.67 487.29,285.00 483.88,285.00 L 479.77 285.00 L 480.17 295.06 C480.60,305.69 481.19,306.95 485.75,306.98 C488.40,307.00 488.92,310.43 486.42,311.39 ZM 653.84 367.11 C653.56,369.07 652.83,369.56 649.76,369.81 C646.85,370.05 645.47,369.56 643.51,367.60 C641.15,365.24 641.00,364.47 641.00,354.62 C641.00,344.53 640.92,344.13 638.76,343.82 C635.44,343.35 635.14,340.00 638.43,340.00 C640.60,340.00 641.00,339.55 641.00,337.11 C641.00,334.48 642.45,333.00 645.02,333.00 C645.49,333.00 646.01,334.46 646.19,336.25 C646.47,339.22 646.83,339.53 650.25,339.81 C653.19,340.05 654.00,340.54 654.00,342.06 C654.00,343.66 653.29,344.00 649.95,344.00 L 645.90 344.00 L 646.08 353.56 C646.24,362.25 646.46,363.26 648.49,364.58 C649.71,365.39 651.50,365.75 652.45,365.38 C653.83,364.85 654.11,365.19 653.84,367.11 ZM 552.00 358.95 L 552.00 369.00 L 546.00 369.00 L 546.00 340.00 L 548.50 340.00 C550.37,340.00 551.00,340.53 551.00,342.09 C551.00,344.10 551.12,344.08 554.08,341.59 C558.11,338.20 561.00,338.16 561.00,341.50 C561.00,343.35 560.47,344.00 558.95,344.00 C557.83,344.00 555.80,345.10 554.45,346.45 C552.17,348.73 552.00,349.62 552.00,358.95 ZM 880.01 359.75 C880.00,368.95 879.99,369.00 877.50,369.00 L 875.00 369.00 L 874.99 356.75 C874.98,350.01 874.70,343.49 874.37,342.25 C873.86,340.34 874.16,340.00 876.38,340.00 C878.37,340.00 879.00,340.50 879.00,342.09 C879.00,344.10 879.12,344.08 882.08,341.59 C885.99,338.29 889.00,338.16 889.00,341.29 C889.00,343.01 888.19,343.83 885.76,344.54 C881.20,345.89 880.03,348.99 880.01,359.75 ZM 814.00 281.00 L 814.00 311.00 L 808.00 311.00 L 808.00 281.00 ZM 189.00 215.25 C193.15,217.32 194.68,217.44 195.27,215.75 C195.51,215.04 194.35,214.03 192.60,213.42 C190.34,212.63 189.41,211.61 189.18,209.68 C188.89,207.21 189.08,207.07 191.93,207.64 C195.67,208.38 196.20,206.34 192.51,205.41 C188.77,204.48 190.62,202.84 194.58,203.58 C198.72,204.36 199.25,202.58 195.27,201.26 L 192.54 200.35 L 195.37 198.49 C197.70,196.97 198.72,196.83 201.10,197.73 C204.37,198.97 205.88,197.77 203.96,195.46 C201.99,193.08 195.58,193.64 192.18,196.50 C190.55,197.88 188.46,199.00 187.54,199.00 C186.36,199.00 186.04,199.55 186.46,200.88 C186.89,202.24 186.46,202.91 184.86,203.33 C183.19,203.76 182.93,204.21 183.75,205.20 C184.35,205.92 184.99,208.08 185.17,210.00 C185.44,212.85 186.15,213.82 189.00,215.25 ZM 500.00 281.00 L 500.00 311.00 L 495.00 311.00 L 495.00 281.00 ZM 835.00 340.00 L 835.00 369.00 L 830.00 369.00 L 830.00 340.00 ZM 537.00 354.38 C537.00,367.78 536.87,368.80 535.06,369.27 C533.99,369.55 532.86,369.53 532.56,369.22 C532.25,368.92 532.00,362.22 532.00,354.33 L 532.00 340.00 L 537.00 340.00 ZM 450.00 306.71 C453.46,308.45 453.77,308.38 457.08,305.08 C459.04,303.11 460.00,301.14 460.00,299.08 C460.00,296.12 459.83,296.00 455.72,296.00 C449.87,296.00 446.80,298.28 447.19,302.32 C447.40,304.48 448.28,305.85 450.00,306.71 ZM 508.24 365.33 C513.11,367.30 518.00,363.53 518.00,357.82 L 518.00 353.78 L 514.25 354.44 C508.13,355.53 507.36,355.92 506.15,358.58 C504.92,361.28 505.88,364.38 508.24,365.33 ZM 897.00 290.67 C897.00,292.90 897.32,293.00 904.50,293.00 C911.64,293.00 912.00,292.89 912.00,290.72 C912.00,289.47 911.30,287.44 910.44,286.22 C907.11,281.47 897.00,284.82 897.00,290.67 ZM 743.57 364.43 C747.70,368.55 754.00,364.64 754.00,357.95 L 754.00 353.91 L 750.25 354.57 C742.74,355.88 739.63,360.48 743.57,364.43 ZM 596.00 290.95 C596.00,292.83 596.61,293.00 603.44,293.00 C607.53,293.00 611.11,292.63 611.40,292.17 C611.68,291.71 611.14,289.80 610.21,287.92 C608.78,285.07 607.88,284.45 604.76,284.19 C601.85,283.95 600.47,284.44 598.51,286.40 C597.13,287.78 596.00,289.83 596.00,290.95 ZM 569.00 349.95 C569.00,351.83 569.61,352.00 576.50,352.00 C583.83,352.00 584.00,351.94 584.00,349.50 C584.00,346.08 580.66,343.00 576.95,343.00 C573.41,343.00 569.00,346.85 569.00,349.95 ZM 455.67 351.33 C456.03,351.70 459.41,352.00 463.17,352.00 C469.79,352.00 470.00,351.92 470.00,349.50 C470.00,346.08 466.66,343.00 462.95,343.00 C458.35,343.00 453.21,348.87 455.67,351.33 ZM 612.68 351.25 C612.92,351.66 616.26,352.00 620.09,352.00 C628.10,352.00 629.58,350.61 626.29,346.17 C623.90,342.95 619.79,342.25 616.38,344.49 C613.89,346.12 611.85,349.84 612.68,351.25 ZM 897.54 351.06 C897.90,351.65 901.21,351.96 905.34,351.79 C912.28,351.51 912.49,351.42 912.23,349.05 C911.62,343.59 905.93,341.26 901.23,344.55 C898.52,346.45 896.69,349.68 897.54,351.06 ZM 847.54 351.06 C847.90,351.65 851.21,351.96 855.34,351.79 C862.34,351.51 862.49,351.44 862.16,349.00 C861.40,343.49 855.93,341.26 851.23,344.55 C848.52,346.45 846.69,349.68 847.54,351.06 ZM 609.32 271.47 C607.22,273.92 604.67,275.95 603.67,275.97 C602.66,275.99 602.00,275.66 602.19,275.25 C605.90,267.52 606.37,267.00 609.76,267.00 L 613.14 267.00 ZM 858.00 334.87 C858.00,337.37 855.71,335.95 850.56,330.25 L 847.63 327.00 L 850.73 327.00 C853.18,327.00 854.28,327.71 855.92,330.37 C857.06,332.22 858.00,334.25 858.00,334.87 ZM 466.11 333.25 C463.86,335.74 461.00,336.94 461.00,335.39 C461.00,335.05 461.98,333.02 463.18,330.89 C464.95,327.75 465.93,327.00 468.31,327.00 C471.55,327.00 471.42,327.38 466.11,333.25 ZM 331.58 262.54 C329.41,264.46 326.59,266.00 325.23,266.00 L 322.80 266.00 L 325.65 262.57 C327.89,259.88 329.25,259.14 332.00,259.11 L 335.50 259.08 ZM 536.96 333.55 C535.39,335.44 533.57,335.39 531.93,333.42 C530.28,331.43 531.79,328.64 534.77,328.19 C537.28,327.82 538.75,331.39 536.96,333.55 ZM 835.03 332.94 C833.74,335.35 833.02,335.47 830.58,333.68 C828.27,331.99 828.90,328.59 831.60,328.20 C834.59,327.77 836.44,330.32 835.03,332.94 ZM 499.99 273.51 C498.39,275.43 495.10,275.43 494.36,273.50 C493.40,271.00 494.79,269.00 497.50,269.00 C500.47,269.00 501.78,271.36 499.99,273.51 ZM 813.82 271.75 C813.60,273.62 812.85,274.59 811.46,274.79 C808.88,275.16 808.00,274.28 808.00,271.33 C808.00,269.40 808.52,269.00 811.07,269.00 C813.82,269.00 814.10,269.28 813.82,271.75 Z" fill="rgb(36,59,112)"/>
<path d="M 818.00 196.00 L 818.00 248.00 L 789.00 248.00 L 789.00 120.00 L 867.00 120.00 L 867.00 144.00 L 818.00 144.00 L 818.00 173.00 L 864.00 173.00 L 864.00 196.00 L 818.00 196.00 ZM 917.76 183.75 L 917.50 247.50 L 903.25 247.78 L 889.00 248.05 L 889.00 120.00 L 918.01 120.00 ZM 148.84 278.66 C147.63,281.60 146.27,284.00 145.83,284.00 C145.39,284.00 144.35,282.39 143.53,280.42 C142.13,277.08 141.81,276.88 138.81,277.54 C137.03,277.93 133.61,279.09 131.21,280.12 C125.64,282.51 122.29,281.73 120.43,277.62 C118.24,272.77 106.00,238.25 105.39,235.19 C105.01,233.28 105.40,231.94 106.71,230.76 C107.74,229.83 117.55,225.88 128.51,221.97 C145.03,216.09 148.83,215.06 150.74,215.93 C152.02,216.51 153.25,217.55 153.49,218.24 C153.72,218.93 157.36,229.07 161.56,240.77 C166.78,255.29 169.01,262.81 168.60,264.46 C168.11,266.42 166.34,267.52 159.52,270.11 C151.09,273.31 151.05,273.34 148.84,278.66 ZM 245.13 286.35 C243.91,287.82 240.44,288.00 214.03,288.00 C186.51,288.00 184.19,287.86 182.65,286.17 C181.74,285.17 181.00,283.61 181.00,282.72 C181.00,281.44 179.75,281.03 175.04,280.80 L 169.08 280.50 L 175.00 273.00 L 180.92 265.50 L 180.96 257.40 C180.96,256.72 180.96,256.07 180.95,255.47 C180.94,252.34 180.93,250.24 181.91,248.83 C183.91,245.96 190.03,245.97 208.64,246.00 C210.42,246.00 212.30,246.00 214.31,246.00 L 243.95 246.00 L 245.54 248.43 C246.87,250.46 247.08,253.62 246.82,267.78 C246.58,280.27 246.14,285.13 245.13,286.35 ZM 211.00 269.07 C211.00,272.11 213.49,271.35 217.92,266.96 C222.50,262.43 222.98,259.98 219.88,256.88 C218.14,255.14 216.91,254.85 212.86,255.24 C207.25,255.78 206.71,256.09 207.58,258.35 C208.08,259.64 209.04,259.86 212.09,259.37 C215.21,258.87 216.10,259.09 216.63,260.48 C217.10,261.71 216.37,262.94 214.15,264.68 C212.42,266.04 211.00,268.01 211.00,269.07 ZM 210.36 277.50 C211.27,279.87 215.50,279.06 215.50,276.51 C215.50,274.31 212.39,273.21 210.76,274.84 C210.20,275.40 210.02,276.60 210.36,277.50 ZM 147.59 257.38 C148.46,259.64 151.50,259.01 151.50,256.57 C151.50,254.39 150.09,253.66 148.22,254.85 C147.49,255.31 147.22,256.41 147.59,257.38 ZM 138.00 260.47 C138.00,261.32 138.86,262.00 139.94,262.00 C142.32,262.00 143.14,260.85 142.03,259.06 C140.99,257.37 138.00,258.41 138.00,260.47 ZM 129.67 265.33 C131.04,266.71 133.00,265.93 133.00,264.00 C133.00,262.67 132.33,262.00 131.00,262.00 C129.07,262.00 128.29,263.96 129.67,265.33 Z" fill="rgb(197,43,93)"/>

</g>
</svg>